<?xml version="1.0" encoding="UTF-8" standalone="no"?>
<svg
   xmlns:dc="http://purl.org/dc/elements/1.1/"
   xmlns:cc="http://creativecommons.org/ns#"
   xmlns:rdf="http://www.w3.org/1999/02/22-rdf-syntax-ns#"
   xmlns:svg="http://www.w3.org/2000/svg"
   xmlns="http://www.w3.org/2000/svg"
   xmlns:sodipodi="http://sodipodi.sourceforge.net/DTD/sodipodi-0.dtd"
   xmlns:inkscape="http://www.inkscape.org/namespaces/inkscape"
   enable-background="new 0 0 100 100"
   id="Layer_1"
   version="1.1"
   viewBox="0 0 100 100"
   xml:space="preserve"
   inkscape:version="0.91 r13725"
   sodipodi:docname="menu.svg"><metadata
     id="metadata15"><rdf:RDF><cc:Work
         rdf:about=""><dc:format>image/svg+xml</dc:format><dc:type
           rdf:resource="http://purl.org/dc/dcmitype/StillImage" /></cc:Work></rdf:RDF></metadata><defs
     id="defs13" /><sodipodi:namedview
     pagecolor="#ffffff"
     bordercolor="#666666"
     borderopacity="1"
     objecttolerance="10"
     gridtolerance="10"
     guidetolerance="10"
     inkscape:pageopacity="0"
     inkscape:pageshadow="2"
     inkscape:window-width="1920"
     inkscape:window-height="1017"
     id="namedview11"
     showgrid="false"
     inkscape:zoom="4.835698"
     inkscape:cx="18.125518"
     inkscape:cy="61.483065"
     inkscape:window-x="1912"
     inkscape:window-y="-8"
     inkscape:window-maximized="1"
     inkscape:current-layer="Layer_1" /><path
     style="fill:#101c26;fill-opacity:1"
     d="m 0.804071,28.892678 0,-1.537317 49.364952,0 49.364952,0 0,1.537317 0,1.537316 -49.364952,0 -49.364952,0 0,-1.537316 z"
     id="path3343"
     inkscape:connector-curvature="0" /><path
     style="fill:#0f60aa;fill-opacity:1"
     d="m 0.804071,28.892678 0,-1.537317 49.364952,0 49.364952,0 0,1.537317 0,1.537316 -49.364952,0 -49.364952,0 0,-1.537316 z"
     id="path3345"
     inkscape:connector-curvature="0" /><path
     style="fill:#0f60aa;fill-opacity:1"
     d="m 0.633257,52.806495 0,-1.537316 49.364952,0 49.364953,0 0,1.537316 0,1.537317 -49.364953,0 -49.364952,0 0,-1.537317 z"
     id="path4147"
     inkscape:connector-curvature="0" /><path
     style="fill:#0f60aa;fill-opacity:1"
     d="m 0.633257,76.720313 0,-1.537316 49.364952,0 49.364953,0 0,1.537316 0,1.537317 -49.364953,0 -49.364952,0 0,-1.537317 z"
     id="path4149"
     inkscape:connector-curvature="0" /></svg>